<mxfile host="app.diagrams.net" modified="2020-12-28T06:27:39.239Z" agent="5.0 (Macintosh; Intel Mac OS X 10_15_7) AppleWebKit/537.36 (KHTML, like Gecko) Chrome/87.0.4280.88 Safari/537.36" etag="umk6yLoSYmSokms-I0xw" version="14.1.2" type="github">
  <diagram name="Page-1" id="13e1069c-82ec-6db2-03f1-153e76fe0fe0">
    <mxGraphModel dx="1351" dy="877" grid="1" gridSize="10" guides="1" tooltips="1" connect="1" arrows="1" fold="1" page="1" pageScale="1" pageWidth="1100" pageHeight="850" background="#ffffff" math="0" shadow="0">
      <root>
        <mxCell id="0" />
        <mxCell id="1" parent="0" />
        <mxCell id="7baba1c4bc27f4b0-2" value="WidgetsFlutterBinding" style="shape=umlLifeline;perimeter=lifelinePerimeter;whiteSpace=wrap;html=1;container=1;collapsible=0;recursiveResize=0;outlineConnect=0;rounded=1;shadow=0;comic=0;labelBackgroundColor=none;strokeWidth=1;fontFamily=Verdana;fontSize=18;align=center;" parent="1" vertex="1">
          <mxGeometry x="390" y="80" width="220" height="580" as="geometry" />
        </mxCell>
        <mxCell id="7baba1c4bc27f4b0-10" value="" style="html=1;points=[];perimeter=orthogonalPerimeter;rounded=0;shadow=0;comic=0;labelBackgroundColor=none;strokeWidth=1;fontFamily=Verdana;fontSize=18;align=center;" parent="7baba1c4bc27f4b0-2" vertex="1">
          <mxGeometry x="105" y="100" width="10" height="260" as="geometry" />
        </mxCell>
        <mxCell id="7baba1c4bc27f4b0-7" value="BindingBase" style="shape=umlLifeline;perimeter=lifelinePerimeter;whiteSpace=wrap;html=1;container=1;collapsible=0;recursiveResize=0;outlineConnect=0;rounded=1;shadow=0;comic=0;labelBackgroundColor=none;strokeWidth=1;fontFamily=Verdana;fontSize=18;align=center;" parent="1" vertex="1">
          <mxGeometry x="790" y="80" width="120" height="580" as="geometry" />
        </mxCell>
        <mxCell id="3ev4w66LwdOVMwAqGUEk-11" value="" style="html=1;points=[];perimeter=orthogonalPerimeter;rounded=0;shadow=0;comic=0;labelBackgroundColor=none;strokeColor=#000000;strokeWidth=1;fillColor=#FFFFFF;fontFamily=Verdana;fontSize=18;fontColor=#000000;align=center;" vertex="1" parent="7baba1c4bc27f4b0-7">
          <mxGeometry x="60" y="190" width="10" height="170" as="geometry" />
        </mxCell>
        <mxCell id="3ev4w66LwdOVMwAqGUEk-21" value="" style="html=1;points=[];perimeter=orthogonalPerimeter;rounded=0;shadow=0;comic=0;labelBackgroundColor=none;strokeWidth=1;fontFamily=Verdana;fontSize=18;align=center;" vertex="1" parent="7baba1c4bc27f4b0-7">
          <mxGeometry x="65" y="210" width="10" height="30" as="geometry" />
        </mxCell>
        <mxCell id="3ev4w66LwdOVMwAqGUEk-31" value="" style="html=1;points=[];perimeter=orthogonalPerimeter;rounded=0;shadow=0;comic=0;labelBackgroundColor=none;strokeWidth=1;fontFamily=Verdana;fontSize=18;align=center;" vertex="1" parent="7baba1c4bc27f4b0-7">
          <mxGeometry x="65" y="310" width="10" height="30" as="geometry" />
        </mxCell>
        <mxCell id="7baba1c4bc27f4b0-8" value="runApp" style="shape=umlLifeline;perimeter=lifelinePerimeter;whiteSpace=wrap;html=1;container=1;collapsible=0;recursiveResize=0;outlineConnect=0;rounded=1;shadow=0;comic=0;labelBackgroundColor=none;strokeWidth=1;fontFamily=Verdana;fontSize=18;align=center;" parent="1" vertex="1">
          <mxGeometry x="100" y="80" width="100" height="580" as="geometry" />
        </mxCell>
        <mxCell id="7baba1c4bc27f4b0-9" value="" style="html=1;points=[];perimeter=orthogonalPerimeter;rounded=0;shadow=0;comic=0;labelBackgroundColor=none;strokeWidth=1;fontFamily=Verdana;fontSize=18;align=center;" parent="7baba1c4bc27f4b0-8" vertex="1">
          <mxGeometry x="45" y="100" width="10" height="440" as="geometry" />
        </mxCell>
        <mxCell id="7baba1c4bc27f4b0-11" value="" style="html=1;verticalAlign=bottom;endArrow=block;entryX=0;entryY=0;labelBackgroundColor=none;fontFamily=Verdana;fontSize=18;edgeStyle=elbowEdgeStyle;elbow=vertical;" parent="1" source="7baba1c4bc27f4b0-9" target="7baba1c4bc27f4b0-10" edge="1">
          <mxGeometry relative="1" as="geometry">
            <mxPoint x="220" y="190" as="sourcePoint" />
          </mxGeometry>
        </mxCell>
        <mxCell id="3ev4w66LwdOVMwAqGUEk-2" value="&lt;span style=&quot;font-size: 18px;&quot;&gt;ensureInitialized&lt;/span&gt;" style="edgeLabel;html=1;align=center;verticalAlign=middle;resizable=0;points=[];fontSize=18;" vertex="1" connectable="0" parent="7baba1c4bc27f4b0-11">
          <mxGeometry x="0.0055" relative="1" as="geometry">
            <mxPoint as="offset" />
          </mxGeometry>
        </mxCell>
        <mxCell id="3ev4w66LwdOVMwAqGUEk-6" value="" style="html=1;points=[];perimeter=orthogonalPerimeter;rounded=0;shadow=0;comic=0;labelBackgroundColor=none;strokeWidth=1;fontFamily=Verdana;fontSize=18;align=center;" vertex="1" parent="1">
          <mxGeometry x="500" y="240" width="10" height="70" as="geometry" />
        </mxCell>
        <mxCell id="3ev4w66LwdOVMwAqGUEk-7" value="构造方法" style="html=1;verticalAlign=bottom;endArrow=block;labelBackgroundColor=none;fontFamily=Verdana;fontSize=18;elbow=vertical;edgeStyle=orthogonalEdgeStyle;curved=1;exitX=1.038;exitY=0.345;exitPerimeter=0;" edge="1" parent="1">
          <mxGeometry relative="1" as="geometry">
            <mxPoint x="509.9999999999999" y="210.00000000000017" as="sourcePoint" />
            <mxPoint x="510" y="247.92000000000002" as="targetPoint" />
            <Array as="points">
              <mxPoint x="564.62" y="209.90000000000003" />
              <mxPoint x="564.62" y="247.90000000000003" />
            </Array>
          </mxGeometry>
        </mxCell>
        <mxCell id="3ev4w66LwdOVMwAqGUEk-12" value="super" style="html=1;verticalAlign=bottom;endArrow=block;labelBackgroundColor=none;fontFamily=Verdana;fontSize=18;exitX=1.186;exitY=0.41;exitDx=0;exitDy=0;exitPerimeter=0;" edge="1" parent="1" source="3ev4w66LwdOVMwAqGUEk-6" target="7baba1c4bc27f4b0-7">
          <mxGeometry relative="1" as="geometry">
            <mxPoint x="520" y="270" as="sourcePoint" />
            <mxPoint x="640" y="270" as="targetPoint" />
          </mxGeometry>
        </mxCell>
        <mxCell id="3ev4w66LwdOVMwAqGUEk-20" value="" style="html=1;verticalAlign=bottom;endArrow=block;labelBackgroundColor=none;fontFamily=Verdana;fontSize=18;elbow=vertical;edgeStyle=orthogonalEdgeStyle;curved=1;entryX=1.043;entryY=0.671;entryDx=0;entryDy=0;entryPerimeter=0;" edge="1" parent="1" target="3ev4w66LwdOVMwAqGUEk-21">
          <mxGeometry relative="1" as="geometry">
            <mxPoint x="860.0014285714283" y="272.08" as="sourcePoint" />
            <mxPoint x="870.9299999999998" y="310.00000000000006" as="targetPoint" />
            <Array as="points">
              <mxPoint x="926" y="272" />
              <mxPoint x="926" y="310" />
            </Array>
          </mxGeometry>
        </mxCell>
        <mxCell id="3ev4w66LwdOVMwAqGUEk-22" value="initInstances" style="edgeLabel;html=1;align=center;verticalAlign=middle;resizable=0;points=[];fontSize=18;" vertex="1" connectable="0" parent="3ev4w66LwdOVMwAqGUEk-20">
          <mxGeometry x="0.0841" y="1" relative="1" as="geometry">
            <mxPoint as="offset" />
          </mxGeometry>
        </mxCell>
        <mxCell id="3ev4w66LwdOVMwAqGUEk-26" value="" style="html=1;verticalAlign=bottom;endArrow=block;labelBackgroundColor=none;fontFamily=Verdana;fontSize=18;elbow=vertical;edgeStyle=orthogonalEdgeStyle;curved=1;entryX=1.043;entryY=0.671;entryDx=0;entryDy=0;entryPerimeter=0;" edge="1" parent="1">
          <mxGeometry relative="1" as="geometry">
            <mxPoint x="860.0014285714285" y="362.0799999999999" as="sourcePoint" />
            <mxPoint x="865.4299999999998" y="400.1300000000001" as="targetPoint" />
            <Array as="points">
              <mxPoint x="926" y="362" />
              <mxPoint x="926" y="400" />
            </Array>
          </mxGeometry>
        </mxCell>
        <mxCell id="3ev4w66LwdOVMwAqGUEk-27" value="initServiceExtensions" style="edgeLabel;html=1;align=center;verticalAlign=middle;resizable=0;points=[];fontSize=18;" vertex="1" connectable="0" parent="3ev4w66LwdOVMwAqGUEk-26">
          <mxGeometry x="0.0841" y="1" relative="1" as="geometry">
            <mxPoint as="offset" />
          </mxGeometry>
        </mxCell>
        <mxCell id="3ev4w66LwdOVMwAqGUEk-32" value="" style="endArrow=none;dashed=1;html=1;fontSize=18;startArrow=open;startFill=0;" edge="1" parent="1">
          <mxGeometry width="50" height="50" relative="1" as="geometry">
            <mxPoint x="505" y="425" as="sourcePoint" />
            <mxPoint x="850" y="425" as="targetPoint" />
          </mxGeometry>
        </mxCell>
        <mxCell id="3ev4w66LwdOVMwAqGUEk-33" value="" style="endArrow=none;dashed=1;html=1;fontSize=18;startArrow=open;startFill=0;" edge="1" parent="1">
          <mxGeometry width="50" height="50" relative="1" as="geometry">
            <mxPoint x="154.99999999999977" y="425" as="sourcePoint" />
            <mxPoint x="500" y="425" as="targetPoint" />
          </mxGeometry>
        </mxCell>
        <mxCell id="3ev4w66LwdOVMwAqGUEk-34" value="return&amp;nbsp;WidgetsBinding" style="edgeLabel;html=1;align=center;verticalAlign=middle;resizable=0;points=[];fontSize=18;" vertex="1" connectable="0" parent="3ev4w66LwdOVMwAqGUEk-33">
          <mxGeometry x="-0.0161" y="-4" relative="1" as="geometry">
            <mxPoint as="offset" />
          </mxGeometry>
        </mxCell>
        <mxCell id="3ev4w66LwdOVMwAqGUEk-35" value="WidgetsBinding" style="shape=umlLifeline;perimeter=lifelinePerimeter;whiteSpace=wrap;html=1;container=1;collapsible=0;recursiveResize=0;outlineConnect=0;rounded=1;shadow=0;comic=0;labelBackgroundColor=none;strokeWidth=1;fontFamily=Verdana;fontSize=18;align=center;" vertex="1" parent="1">
          <mxGeometry x="1110" y="80" width="170" height="580" as="geometry" />
        </mxCell>
        <mxCell id="3ev4w66LwdOVMwAqGUEk-47" value="" style="html=1;points=[];perimeter=orthogonalPerimeter;rounded=0;shadow=0;comic=0;labelBackgroundColor=none;strokeWidth=1;fontFamily=Verdana;fontSize=18;align=center;" vertex="1" parent="3ev4w66LwdOVMwAqGUEk-35">
          <mxGeometry x="80" y="530" width="10" height="40" as="geometry" />
        </mxCell>
        <mxCell id="3ev4w66LwdOVMwAqGUEk-43" value="scheduleAttachRootWidget" style="endArrow=classic;html=1;fontSize=18;exitX=1.114;exitY=0.728;exitDx=0;exitDy=0;exitPerimeter=0;" edge="1" parent="1" source="7baba1c4bc27f4b0-9" target="3ev4w66LwdOVMwAqGUEk-35">
          <mxGeometry width="50" height="50" relative="1" as="geometry">
            <mxPoint x="640" y="500" as="sourcePoint" />
            <mxPoint x="690" y="450" as="targetPoint" />
          </mxGeometry>
        </mxCell>
        <mxCell id="3ev4w66LwdOVMwAqGUEk-44" value="" style="html=1;points=[];perimeter=orthogonalPerimeter;rounded=0;shadow=0;comic=0;labelBackgroundColor=none;strokeWidth=1;fontFamily=Verdana;fontSize=18;align=center;" vertex="1" parent="1">
          <mxGeometry x="1190" y="500" width="10" height="40" as="geometry" />
        </mxCell>
        <mxCell id="3ev4w66LwdOVMwAqGUEk-46" value="scheduleWarmUpFrame" style="endArrow=classic;html=1;fontSize=18;" edge="1" parent="1">
          <mxGeometry width="50" height="50" relative="1" as="geometry">
            <mxPoint x="160" y="610" as="sourcePoint" />
            <mxPoint x="1190" y="610.0000000000002" as="targetPoint" />
          </mxGeometry>
        </mxCell>
      </root>
    </mxGraphModel>
  </diagram>
</mxfile>
